<!-- <svg
  xmlns="http://www.w3.org/2000/svg"
  viewBox="0 0 24 24"
>
  <path fill="none" stroke-linejoin="round" stroke-linecap="round" stroke-width="2" stroke="currentColor" d="M18 13v6a2 2 0 01-2 2v0H5a2 2 0 01-2-2v0V8a2 2 0 012-2v0h6M15 3h6v6M10 14L21 3"></path>
</svg> -->

<svg
  xmlns="http://www.w3.org/2000/svg"
  viewBox="0 0 24 24"
  fill="none"
>
  <path stroke="black" stroke-linecap="round" stroke-linejoin="round" stroke-width="2" d="M10 6H6a2 2 0 00-2 2v10a2 2 0 002 2h10a2 2 0 002-2v-4M14 4h6m0 0v6m0-6L10 14"></path>
</svg>
