<svg
  xmlns="http://www.w3.org/2000/svg"
  viewBox="0 0 24 24"
>
  <path fill="none" stroke-linejoin="round" stroke-linecap="round" stroke-width="2" stroke="currentColor" d="M5 5.5A3.5 3.5 0 018.5 2v0H12v7H8.5A3.5 3.5 0 015 5.5v0zM12 2h3.5a3.5 3.5 0 110 7v0H12V2z"></path>
  <path fill="none" stroke-linejoin="round" stroke-linecap="round" stroke-width="2" stroke="currentColor" d="M12 12.5a3.5 3.5 0 117 0v0a3.5 3.5 0 11-7 0v0zM5 19.5A3.5 3.5 0 018.5 16v0H12v3.5a3.5 3.5 0 11-7 0v0zM5 12.5A3.5 3.5 0 018.5 9v0H12v7H8.5A3.5 3.5 0 015 12.5v0z"></path>
</svg>